<svg width="216" height="68" viewBox="0 0 216 68" fill="none" xmlns="http://www.w3.org/2000/svg">
<path d="M12.6743 45.6728H203.205V67.3898H12.6743V45.6728Z" fill="url(#paint0_linear_778_3)"/>
<path d="M46.6566 3.40427H50.5924V4.61442H46.6566V3.40427ZM46.7697 6.79722H51.2371V8.02999H45.2994V0.113098H51.0788V1.34587H46.7697V6.79722Z" fill="white"/>
<path d="M55.1068 8.02999L51.646 0.113098H53.2407L56.3283 7.27223H55.4122L58.5337 0.113098H60.004L56.5545 8.02999H55.1068Z" fill="white"/>
<path d="M62.1966 3.40427H66.1324V4.61442H62.1966V3.40427ZM62.3097 6.79722H66.7771V8.02999H60.8394V0.113098H66.6188V1.34587H62.3097V6.79722Z" fill="white"/>
<path d="M68.4162 8.02999V0.113098H69.6263L74.5913 6.20911H73.9919V0.113098H75.4509V8.02999H74.2407L69.2757 1.93398H69.8751V8.02999H68.4162Z" fill="white"/>
<path d="M79.1783 8.02999V1.35718H76.5544V0.113098H83.2724V1.35718H80.6485V8.02999H79.1783Z" fill="white"/>
<path d="M87.975 8.14309C87.3568 8.14309 86.7875 8.0413 86.2672 7.83773C85.747 7.63415 85.2946 7.3514 84.9101 6.98949C84.5255 6.62003 84.2277 6.19026 84.0166 5.70017C83.8055 5.20253 83.6999 4.65966 83.6999 4.07155C83.6999 3.48343 83.8055 2.94433 84.0166 2.45424C84.2277 1.9566 84.5255 1.52683 84.9101 1.16491C85.2946 0.79546 85.747 0.508943 86.2672 0.305366C86.7875 0.101789 87.353 0 87.9637 0C88.582 0 89.1475 0.101789 89.6602 0.305366C90.1805 0.508943 90.6329 0.79546 91.0174 1.16491C91.4019 1.52683 91.6997 1.9566 91.9109 2.45424C92.122 2.94433 92.2275 3.48343 92.2275 4.07155C92.2275 4.65966 92.122 5.20253 91.9109 5.70017C91.6997 6.1978 91.4019 6.62757 91.0174 6.98949C90.6329 7.3514 90.1805 7.63415 89.6602 7.83773C89.1475 8.0413 88.5858 8.14309 87.975 8.14309ZM87.9637 6.85377C88.3633 6.85377 88.7328 6.78591 89.0721 6.65019C89.4114 6.51447 89.7054 6.32221 89.9543 6.07339C90.2031 5.81703 90.3953 5.52298 90.5311 5.19122C90.6743 4.85193 90.7459 4.4787 90.7459 4.07155C90.7459 3.66439 90.6743 3.29494 90.5311 2.96318C90.3953 2.62389 90.2031 2.32983 89.9543 2.08101C89.7054 1.82466 89.4114 1.62862 89.0721 1.4929C88.7328 1.35718 88.3633 1.28932 87.9637 1.28932C87.5641 1.28932 87.1947 1.35718 86.8554 1.4929C86.5236 1.62862 86.2295 1.82466 85.9732 2.08101C85.7244 2.32983 85.5283 2.62389 85.3851 2.96318C85.2494 3.29494 85.1815 3.66439 85.1815 4.07155C85.1815 4.47116 85.2494 4.84062 85.3851 5.17991C85.5283 5.51921 85.7244 5.81703 85.9732 6.07339C86.222 6.32221 86.5161 6.51447 86.8554 6.65019C87.1947 6.78591 87.5641 6.85377 87.9637 6.85377Z" fill="white"/>
<path d="M96.9117 8.02999V0.113098H100.169C100.87 0.113098 101.47 0.226197 101.967 0.452394C102.472 0.678591 102.861 1.00281 103.132 1.42504C103.404 1.84728 103.539 2.34868 103.539 2.92925C103.539 3.50982 103.404 4.01123 103.132 4.43346C102.861 4.8557 102.472 5.17991 101.967 5.40611C101.47 5.63231 100.87 5.7454 100.169 5.7454H97.726L98.382 5.0555V8.02999H96.9117ZM98.382 5.21384L97.726 4.50132H100.101C100.749 4.50132 101.236 4.3656 101.56 4.09417C101.892 3.81519 102.058 3.42689 102.058 2.92925C102.058 2.42408 101.892 2.03577 101.56 1.76434C101.236 1.4929 100.749 1.35718 100.101 1.35718H97.726L98.382 0.633352V5.21384Z" fill="white"/>
<path d="M105.007 8.02999V0.113098H108.265C108.966 0.113098 109.565 0.226197 110.063 0.452394C110.568 0.678591 110.956 1.00281 111.228 1.42504C111.499 1.84728 111.635 2.34868 111.635 2.92925C111.635 3.50982 111.499 4.01123 111.228 4.43346C110.956 4.84816 110.568 5.1686 110.063 5.3948C109.565 5.61346 108.966 5.72278 108.265 5.72278H105.822L106.478 5.0555V8.02999H105.007ZM110.187 8.02999L108.186 5.15729H109.758L111.771 8.02999H110.187ZM106.478 5.21384L105.822 4.51263H108.197C108.845 4.51263 109.332 4.37314 109.656 4.09417C109.988 3.81519 110.153 3.42689 110.153 2.92925C110.153 2.42408 109.988 2.03577 109.656 1.76434C109.332 1.4929 108.845 1.35718 108.197 1.35718H105.822L106.478 0.633352V5.21384Z" fill="white"/>
<path d="M114.637 3.40427H118.573V4.61442H114.637V3.40427ZM114.75 6.79722H119.218V8.02999H113.28V0.113098H119.059V1.34587H114.75V6.79722Z" fill="white"/>
<path d="M123.311 8.14309C122.693 8.14309 122.101 8.05638 121.535 7.88297C120.97 7.70201 120.521 7.47204 120.189 7.19307L120.698 6.05077C121.015 6.29959 121.407 6.50693 121.875 6.67281C122.342 6.83869 122.821 6.92163 123.311 6.92163C123.726 6.92163 124.061 6.87639 124.318 6.78591C124.574 6.69543 124.762 6.57479 124.883 6.424C125.004 6.26566 125.064 6.08847 125.064 5.89243C125.064 5.65116 124.977 5.45889 124.804 5.31563C124.63 5.16483 124.404 5.04796 124.125 4.96502C123.854 4.87455 123.548 4.79161 123.209 4.71621C122.877 4.64081 122.542 4.5541 122.203 4.45608C121.871 4.35052 121.566 4.21857 121.287 4.06024C121.015 3.89436 120.793 3.6757 120.619 3.40427C120.446 3.13283 120.359 2.78599 120.359 2.36376C120.359 1.93398 120.472 1.54191 120.698 1.18753C120.932 0.825619 121.283 0.539103 121.75 0.327985C122.225 0.109328 122.825 0 123.548 0C124.024 0 124.495 0.0603193 124.962 0.180958C125.43 0.301596 125.837 0.475014 126.184 0.701211L125.72 1.84351C125.366 1.63239 125 1.47782 124.623 1.3798C124.246 1.27424 123.884 1.22146 123.537 1.22146C123.13 1.22146 122.798 1.27047 122.542 1.36849C122.293 1.46651 122.108 1.59469 121.988 1.75303C121.875 1.91136 121.818 2.09232 121.818 2.2959C121.818 2.53718 121.901 2.73321 122.067 2.88401C122.24 3.02727 122.463 3.14037 122.734 3.22331C123.013 3.30625 123.322 3.38919 123.662 3.47212C124.001 3.54752 124.336 3.63423 124.668 3.73225C125.007 3.83027 125.313 3.95845 125.584 4.11679C125.863 4.27512 126.086 4.49001 126.252 4.76145C126.425 5.03288 126.512 5.37595 126.512 5.79064C126.512 6.21288 126.395 6.60495 126.161 6.96687C125.935 7.32124 125.584 7.60776 125.109 7.82642C124.634 8.03753 124.035 8.14309 123.311 8.14309Z" fill="white"/>
<path d="M129.327 3.40427H133.263V4.61442H129.327V3.40427ZM129.44 6.79722H133.907V8.02999H127.97V0.113098H133.749V1.34587H129.44V6.79722Z" fill="white"/>
<path d="M135.546 8.02999V0.113098H136.756L141.721 6.20911H141.122V0.113098H142.581V8.02999H141.371L136.406 1.93398H137.005V8.02999H135.546Z" fill="white"/>
<path d="M148.367 8.14309C147.764 8.14309 147.202 8.04507 146.682 7.84904C146.169 7.64546 145.72 7.36271 145.336 7.0008C144.959 6.63134 144.665 6.1978 144.454 5.70017C144.242 5.20253 144.137 4.65966 144.137 4.07155C144.137 3.48343 144.242 2.94056 144.454 2.44293C144.665 1.94529 144.963 1.51552 145.347 1.1536C145.732 0.78415 146.18 0.501404 146.693 0.305366C147.206 0.101789 147.767 0 148.378 0C149.027 0 149.618 0.113099 150.154 0.339296C150.689 0.557953 151.141 0.885938 151.511 1.32325L150.561 2.21673C150.274 1.9076 149.954 1.67763 149.6 1.52683C149.245 1.36849 148.861 1.28932 148.446 1.28932C148.031 1.28932 147.651 1.35718 147.304 1.4929C146.964 1.62862 146.667 1.82089 146.41 2.0697C146.161 2.31852 145.965 2.61258 145.822 2.95187C145.686 3.29117 145.619 3.66439 145.619 4.07155C145.619 4.4787 145.686 4.85193 145.822 5.19122C145.965 5.53052 146.161 5.82457 146.41 6.07339C146.667 6.32221 146.964 6.51447 147.304 6.65019C147.651 6.78591 148.031 6.85377 148.446 6.85377C148.861 6.85377 149.245 6.77837 149.6 6.62757C149.954 6.46924 150.274 6.23173 150.561 5.91505L151.511 6.81984C151.141 7.24962 150.689 7.5776 150.154 7.8038C149.618 8.02999 149.023 8.14309 148.367 8.14309Z" fill="white"/>
<path d="M152.92 8.02999V0.113098H154.39V8.02999H152.92Z" fill="white"/>
<path d="M155.412 8.02999L158.974 0.113098H160.422L163.996 8.02999H162.458L159.393 0.893478H159.981L156.927 8.02999H155.412ZM157.052 6.1978L157.447 5.04419H161.723L162.118 6.1978H157.052Z" fill="white"/>
<path d="M165.003 8.02999V0.113098H166.473V6.78591H170.612V8.02999H165.003Z" fill="white"/>
<path d="M0 39.0129V14.0325H5.78118V34.3023H18.3071V39.0129H0Z" fill="white"/>
<path d="M21.5372 39.0129V14.0325H27.3184V39.0129H21.5372Z" fill="white"/>
<path d="M33.2468 39.0129V14.0325H45.4515C48.5919 14.0325 50.9472 14.6273 52.5174 15.8168C54.1114 17.0064 54.9084 18.5765 54.9084 20.5274C54.9084 21.8359 54.5872 22.9779 53.9449 23.9533C53.3025 24.9049 52.4223 25.6424 51.3041 26.1658C50.1859 26.6892 48.9012 26.9509 47.45 26.9509L48.128 25.4878C49.6982 25.4878 51.09 25.7495 52.3033 26.2729C53.5166 26.7725 54.4564 27.5219 55.1225 28.5211C55.8125 29.5204 56.1574 30.7456 56.1574 32.1968C56.1574 34.338 55.3128 36.0153 53.6237 37.2286C51.9345 38.4181 49.4484 39.0129 46.1653 39.0129H33.2468ZM38.9923 34.6592H45.737C47.2358 34.6592 48.3659 34.4213 49.1272 33.9455C49.9123 33.4458 50.3049 32.6607 50.3049 31.5902C50.3049 30.5434 49.9123 29.7702 49.1272 29.2705C48.3659 28.7471 47.2358 28.4854 45.737 28.4854H38.5641V24.2745H44.7378C46.1415 24.2745 47.2121 24.0366 47.9496 23.5607C48.7109 23.0611 49.0915 22.3117 49.0915 21.3125C49.0915 20.3371 48.7109 19.6115 47.9496 19.1356C47.2121 18.636 46.1415 18.3862 44.7378 18.3862H38.9923V34.6592Z" fill="white"/>
<path d="M65.8515 24.096H77.8778V28.5925H65.8515V24.096ZM66.2798 34.3737H79.8763V39.0129H60.5343V14.0325H79.4124V18.6717H66.2798V34.3737Z" fill="white"/>
<path d="M84.4762 39.0129V14.0325H95.2891C97.5255 14.0325 99.4525 14.4012 101.07 15.1388C102.688 15.8525 103.937 16.8874 104.817 18.2435C105.698 19.5996 106.138 21.2173 106.138 23.0968C106.138 24.9525 105.698 26.5584 104.817 27.9145C103.937 29.2468 102.688 30.2698 101.07 30.9835C99.4525 31.6972 97.5255 32.0541 95.2891 32.0541H87.6879L90.2574 29.5203V39.0129H84.4762ZM100.357 39.0129L94.1115 29.9486H100.285L106.602 39.0129H100.357ZM90.2574 30.1627L87.6879 27.4505H94.9679C96.7523 27.4505 98.0846 27.0699 98.9648 26.3086C99.8451 25.5235 100.285 24.4529 100.285 23.0968C100.285 21.7169 99.8451 20.6464 98.9648 19.885C98.0846 19.1237 96.7523 18.7431 94.9679 18.7431H87.6879L90.2574 15.9952V30.1627Z" fill="white"/>
<path d="M110.718 39.0129V14.0325H122.066C124.779 14.0325 127.17 14.5559 129.239 15.6027C131.309 16.6257 132.927 18.065 134.093 19.9207C135.258 21.7764 135.841 23.9771 135.841 26.5227C135.841 29.0445 135.258 31.2452 134.093 33.1247C132.927 34.9804 131.309 36.4316 129.239 37.4784C127.17 38.5014 124.779 39.0129 122.066 39.0129H110.718ZM116.499 34.2666H121.781C123.446 34.2666 124.886 33.9573 126.099 33.3388C127.336 32.6964 128.288 31.7924 128.954 30.6266C129.644 29.4609 129.989 28.0929 129.989 26.5227C129.989 24.9287 129.644 23.5607 128.954 22.4188C128.288 21.253 127.336 20.3609 126.099 19.7423C124.886 19.0999 123.446 18.7788 121.781 18.7788H116.499V34.2666Z" fill="white"/>
<path d="M136.57 39.0129L147.704 14.0325H153.413L164.583 39.0129H158.517L149.381 16.9588H151.665L142.493 39.0129H136.57ZM142.137 33.66L143.671 29.2705H156.518L158.088 33.66H142.137Z" fill="white"/>
<path d="M167.175 39.0129V14.0325H178.523C181.235 14.0325 183.626 14.5559 185.696 15.6027C187.766 16.6257 189.384 18.065 190.55 19.9207C191.715 21.7764 192.298 23.9771 192.298 26.5227C192.298 29.0445 191.715 31.2452 190.55 33.1247C189.384 34.9804 187.766 36.4316 185.696 37.4784C183.626 38.5014 181.235 39.0129 178.523 39.0129H167.175ZM172.956 34.2666H178.238C179.903 34.2666 181.342 33.9573 182.556 33.3388C183.793 32.6964 184.745 31.7924 185.411 30.6266C186.101 29.4609 186.446 28.0929 186.446 26.5227C186.446 24.9287 186.101 23.5607 185.411 22.4188C184.745 21.253 183.793 20.3609 182.556 19.7423C181.342 19.0999 179.903 18.7788 178.238 18.7788H172.956V34.2666Z" fill="white"/>
<path d="M201.975 24.096H214.002V28.5925H201.975V24.096ZM202.404 34.3737H216V39.0129H196.658V14.0325H215.536V18.6717H202.404V34.3737Z" fill="white"/>
<path d="M25.0907 61.3913C24.3689 61.3913 23.6973 61.2725 23.0759 61.0349C22.4637 60.7882 21.9292 60.4455 21.4723 60.0069C21.0246 59.5592 20.6728 59.0429 20.4169 58.4581C20.1702 57.8642 20.0469 57.2154 20.0469 56.5119C20.0469 55.8083 20.1702 55.1641 20.4169 54.5793C20.6728 53.9854 21.0246 53.4691 21.4723 53.0305C21.9292 52.5828 22.4637 52.2401 23.0759 52.0025C23.6881 51.7558 24.3598 51.6325 25.0907 51.6325C25.8126 51.6325 26.4796 51.7558 27.0919 52.0025C27.7041 52.2401 28.234 52.5782 28.6818 53.0168C29.1386 53.4554 29.4904 53.9716 29.7371 54.5656C29.993 55.1595 30.1209 55.8083 30.1209 56.5119C30.1209 57.2154 29.993 57.8642 29.7371 58.4581C29.4904 59.0521 29.1386 59.5683 28.6818 60.0069C28.234 60.4455 27.7041 60.7882 27.0919 61.0349C26.4796 61.2725 25.8126 61.3913 25.0907 61.3913ZM25.0907 60.4867C25.6664 60.4867 26.1964 60.3907 26.6807 60.1988C27.1741 59.9978 27.599 59.7191 27.9553 59.3627C28.3208 58.9972 28.6041 58.5769 28.8051 58.1018C29.0062 57.6175 29.1067 57.0875 29.1067 56.5119C29.1067 55.9362 29.0062 55.4108 28.8051 54.9356C28.6041 54.4514 28.3208 54.031 27.9553 53.6747C27.599 53.3092 27.1741 53.0305 26.6807 52.8386C26.1964 52.6376 25.6664 52.5371 25.0907 52.5371C24.5151 52.5371 23.9805 52.6376 23.4871 52.8386C22.9937 53.0305 22.5642 53.3092 22.1987 53.6747C21.8424 54.031 21.5591 54.4514 21.349 54.9356C21.1479 55.4108 21.0474 55.9362 21.0474 56.5119C21.0474 57.0784 21.1479 57.6038 21.349 58.0881C21.5591 58.5724 21.8424 58.9972 22.1987 59.3627C22.5642 59.7191 22.9937 59.9978 23.4871 60.1988C23.9805 60.3907 24.5151 60.4867 25.0907 60.4867Z" fill="black"/>
<path d="M39.5215 61.309V51.7147H43.1126C43.9258 51.7147 44.6248 51.8472 45.2096 52.1122C45.7944 52.368 46.2421 52.7427 46.5528 53.2361C46.8726 53.7204 47.0325 54.3097 47.0325 55.0042C47.0325 55.6803 46.8726 56.2651 46.5528 56.7586C46.2421 57.2429 45.7944 57.6175 45.2096 57.8825C44.6248 58.1475 43.9258 58.28 43.1126 58.28H40.0835L40.5358 57.8002V61.309H39.5215ZM40.5358 57.8825L40.0835 57.3891H43.0852C44.0446 57.3891 44.771 57.1835 45.2644 56.7723C45.767 56.3519 46.0183 55.7626 46.0183 55.0042C46.0183 54.2366 45.767 53.6427 45.2644 53.2224C44.771 52.802 44.0446 52.5919 43.0852 52.5919H40.0835L40.5358 52.1122V57.8825Z" fill="black"/>
<path d="M57.2575 56.0047H62.3287V56.8682H57.2575V56.0047ZM57.3671 60.4318H63.1374V61.309H56.3528V51.7147H62.9318V52.5919H57.3671V60.4318Z" fill="black"/>
<path d="M72.6488 61.309V51.7147H76.2398C77.053 51.7147 77.752 51.8472 78.3368 52.1122C78.9216 52.368 79.3694 52.7427 79.68 53.2361C79.9998 53.7204 80.1597 54.3097 80.1597 55.0042C80.1597 55.6803 79.9998 56.2651 79.68 56.7586C79.3694 57.2429 78.9216 57.6175 78.3368 57.8825C77.752 58.1383 77.053 58.2662 76.2398 58.2662H73.2107L73.663 57.8002V61.309H72.6488ZM79.2003 61.309L76.7332 57.8276H77.8297L80.3105 61.309H79.2003ZM73.663 57.8825L73.2107 57.4028H76.2124C77.1718 57.4028 77.8982 57.1926 78.3917 56.7723C78.8942 56.3519 79.1455 55.7626 79.1455 55.0042C79.1455 54.2366 78.8942 53.6427 78.3917 53.2224C77.8982 52.802 77.1718 52.5919 76.2124 52.5919H73.2107L73.663 52.1122V57.8825Z" fill="black"/>
<path d="M88.1457 61.309L92.5317 51.7147H93.5323L97.9183 61.309H96.8492L92.8195 52.3041H93.2307L89.2011 61.309H88.1457ZM89.8727 58.746L90.1743 57.9236H95.7527L96.0542 58.746H89.8727Z" fill="black"/>
<path d="M110.665 61.3913C109.944 61.3913 109.277 61.2725 108.664 61.0349C108.052 60.7882 107.522 60.4455 107.074 60.0069C106.627 59.5683 106.275 59.0521 106.019 58.4581C105.772 57.8642 105.649 57.2154 105.649 56.5119C105.649 55.8083 105.772 55.1595 106.019 54.5656C106.275 53.9716 106.627 53.4554 107.074 53.0168C107.531 52.5782 108.066 52.2401 108.678 52.0025C109.29 51.7558 109.957 51.6325 110.679 51.6325C111.374 51.6325 112.027 51.7512 112.639 51.9888C113.251 52.2173 113.768 52.5645 114.188 53.0305L113.544 53.6747C113.151 53.2726 112.717 52.9848 112.242 52.8112C111.767 52.6284 111.255 52.5371 110.707 52.5371C110.131 52.5371 109.596 52.6376 109.103 52.8386C108.61 53.0305 108.18 53.3092 107.815 53.6747C107.449 54.031 107.161 54.4514 106.951 54.9356C106.75 55.4108 106.65 55.9362 106.65 56.5119C106.65 57.0875 106.75 57.6175 106.951 58.1018C107.161 58.5769 107.449 58.9972 107.815 59.3627C108.18 59.7191 108.61 59.9978 109.103 60.1988C109.596 60.3907 110.131 60.4867 110.707 60.4867C111.255 60.4867 111.767 60.3953 112.242 60.2125C112.717 60.0298 113.151 59.7374 113.544 59.3353L114.188 59.9795C113.768 60.4455 113.251 60.7973 112.639 61.0349C112.027 61.2725 111.369 61.3913 110.665 61.3913Z" fill="black"/>
<path d="M123.477 61.309V51.7147H124.492V61.309H123.477Z" fill="black"/>
<path d="M138.935 61.3913C138.213 61.3913 137.541 61.2725 136.92 61.0349C136.308 60.7882 135.773 60.4455 135.316 60.0069C134.868 59.5592 134.517 59.0429 134.261 58.4581C134.014 57.8642 133.891 57.2154 133.891 56.5119C133.891 55.8083 134.014 55.1641 134.261 54.5793C134.517 53.9854 134.868 53.4691 135.316 53.0305C135.773 52.5828 136.308 52.2401 136.92 52.0025C137.532 51.7558 138.204 51.6325 138.935 51.6325C139.656 51.6325 140.323 51.7558 140.936 52.0025C141.548 52.2401 142.078 52.5782 142.526 53.0168C142.982 53.4554 143.334 53.9716 143.581 54.5656C143.837 55.1595 143.965 55.8083 143.965 56.5119C143.965 57.2154 143.837 57.8642 143.581 58.4581C143.334 59.0521 142.982 59.5683 142.526 60.0069C142.078 60.4455 141.548 60.7882 140.936 61.0349C140.323 61.2725 139.656 61.3913 138.935 61.3913ZM138.935 60.4867C139.51 60.4867 140.04 60.3907 140.524 60.1988C141.018 59.9978 141.443 59.7191 141.799 59.3627C142.165 58.9972 142.448 58.5769 142.649 58.1018C142.85 57.6175 142.95 57.0875 142.95 56.5119C142.95 55.9362 142.85 55.4108 142.649 54.9356C142.448 54.4514 142.165 54.031 141.799 53.6747C141.443 53.3092 141.018 53.0305 140.524 52.8386C140.04 52.6376 139.51 52.5371 138.935 52.5371C138.359 52.5371 137.824 52.6376 137.331 52.8386C136.838 53.0305 136.408 53.3092 136.043 53.6747C135.686 54.031 135.403 54.4514 135.193 54.9356C134.992 55.4108 134.891 55.9362 134.891 56.5119C134.891 57.0784 134.992 57.6038 135.193 58.0881C135.403 58.5724 135.686 58.9972 136.043 59.3627C136.408 59.7191 136.838 59.9978 137.331 60.1988C137.824 60.3907 138.359 60.4867 138.935 60.4867Z" fill="black"/>
<path d="M153.365 61.309V51.7147H154.201L160.822 60.048H160.383V51.7147H161.383V61.309H160.547L153.941 52.9757H154.38V61.309H153.365Z" fill="black"/>
<path d="M170.107 61.309L174.493 51.7147H175.494L179.88 61.309H178.811L174.781 52.3041H175.192L171.163 61.309H170.107ZM171.834 58.746L172.136 57.9236H177.714L178.016 58.746H171.834Z" fill="black"/>
<path d="M188.594 61.309V51.7147H189.608V60.4318H194.981V61.309H188.594Z" fill="black"/>
<defs>
<linearGradient id="paint0_linear_778_3" x1="0" y1="33.6949" x2="216" y2="33.6949" gradientUnits="userSpaceOnUse">
<stop stop-color="#E5C076"/>
<stop offset="1" stop-color="#EED8A2"/>
</linearGradient>
</defs>
</svg>
